{
    "asset" : {
        "generator" : "Khronos glTF Blender I/O v0.9.36",
        "version" : "2.0"
    },
    "scene" : 0,
    "scenes" : [
        {
            "name" : "Scene",
            "nodes" : [
                0
            ]
        }
    ],
    "nodes" : [
        {
            "mesh" : 0,
            "name" : "two-tone-watch.005",
            "rotation" : [
                0.7109609842300415,
                0,
                0,
                0.6032310128211975
            ],
            "translation" : [
                0,
                0.040900006890296936,
                0
            ]
        }
    ],
    "materials" : [
        {
            "doubleSided" : true,
            "name" : "Gray_metal",
            "pbrMetallicRoughness" : {
                "baseColorFactor" : [
                    0.53329998254776,
                    0.53329998254776,
                    0.53329998254776,
                    1
                ],
                "metallicFactor" : 0,
                "roughnessFactor" : 0.8333333134651184
            }
        },
        {
            "doubleSided" : true,
            "name" : "Gold_metal",
            "pbrMetallicRoughness" : {
                "baseColorFactor" : [
                    0.5175999999046326,
                    0.3921999931335449,
                    0.09019999951124191,
                    1
                ],
                "metallicFactor" : 0,
                "roughnessFactor" : 0.8333333134651184
            }
        }
    ],
    "meshes" : [
        {
            "name" : "two-tone-watch.005",
            "primitives" : [
                {
                    "attributes" : {
                        "POSITION" : 0,
                        "NORMAL" : 1,
                        "TEXCOORD_0" : 2
                    },
                    "indices" : 3,
                    "material" : 0
                },
                {
                    "attributes" : {
                        "POSITION" : 4,
                        "NORMAL" : 5,
                        "TEXCOORD_0" : 6
                    },
                    "indices" : 7,
                    "material" : 1
                }
            ]
        }
    ],
    "accessors" : [
        {
            "bufferView" : 0,
            "componentType" : 5126,
            "count" : 2584,
            "max" : [
                0.25168365240097046,
                0.15078750252723694,
                0.05045715719461441
            ],
            "min" : [
                -0.25321635603904724,
                -0.1278124749660492,
                -0.04324283450841904
            ],
            "type" : "VEC3"
        },
        {
            "bufferView" : 1,
            "componentType" : 5126,
            "count" : 2584,
            "type" : "VEC3"
        },
        {
            "bufferView" : 2,
            "componentType" : 5126,
            "count" : 2584,
            "type" : "VEC2"
        },
        {
            "bufferView" : 3,
            "componentType" : 5123,
            "count" : 4578,
            "type" : "SCALAR"
        },
        {
            "bufferView" : 4,
            "componentType" : 5126,
            "count" : 871,
            "max" : [
                0.06188367307186127,
                0.13318750262260437,
                0.05045715719461441
            ],
            "min" : [
                -0.06351633369922638,
                -0.1278124749660492,
                -0.04324283450841904
            ],
            "type" : "VEC3"
        },
        {
            "bufferView" : 5,
            "componentType" : 5126,
            "count" : 871,
            "type" : "VEC3"
        },
        {
            "bufferView" : 6,
            "componentType" : 5126,
            "count" : 871,
            "type" : "VEC2"
        },
        {
            "bufferView" : 7,
            "componentType" : 5123,
            "count" : 1737,
            "type" : "SCALAR"
        }
    ],
    "bufferViews" : [
        {
            "buffer" : 0,
            "byteLength" : 31008,
            "byteOffset" : 0
        },
        {
            "buffer" : 0,
            "byteLength" : 31008,
            "byteOffset" : 31008
        },
        {
            "buffer" : 0,
            "byteLength" : 20672,
            "byteOffset" : 62016
        },
        {
            "buffer" : 0,
            "byteLength" : 9156,
            "byteOffset" : 82688
        },
        {
            "buffer" : 0,
            "byteLength" : 10452,
            "byteOffset" : 91844
        },
        {
            "buffer" : 0,
            "byteLength" : 10452,
            "byteOffset" : 102296
        },
        {
            "buffer" : 0,
            "byteLength" : 6968,
            "byteOffset" : 112748
        },
        {
            "buffer" : 0,
            "byteLength" : 3474,
            "byteOffset" : 119716
        }
    ],
    "buffers" : [
        {
            "byteLength" : 123192,
            "uri" : "data:application/octet-stream;base64,"
        }
    ]
}
