{
    "asset" : {
        "generator" : "Khronos glTF Blender I/O v0.9.36",
        "version" : "2.0"
    },
    "scene" : 0,
    "scenes" : [
        {
            "name" : "Scene",
            "nodes" : [
                0
            ]
        }
    ],
    "nodes" : [
        {
            "mesh" : 0,
            "name" : "two-tone-watch.001",
            "rotation" : [
                -0.9994021654129028,
                0,
                0,
                0.03457072377204895
            ],
            "translation" : [
                0.017608560621738434,
                0.08855080604553223,
                0.012337077409029007
            ]
        }
    ],
    "materials" : [
        {
            "doubleSided" : true,
            "name" : "Gray_metal",
            "pbrMetallicRoughness" : {
                "baseColorFactor" : [
                    0.53329998254776,
                    0.53329998254776,
                    0.53329998254776,
                    1
                ],
                "metallicFactor" : 0,
                "roughnessFactor" : 0.8333333134651184
            }
        },
        {
            "doubleSided" : true,
            "name" : "Gold_metal",
            "pbrMetallicRoughness" : {
                "baseColorFactor" : [
                    0.5175999999046326,
                    0.3921999931335449,
                    0.09019999951124191,
                    1
                ],
                "metallicFactor" : 0,
                "roughnessFactor" : 0.8333333134651184
            }
        }
    ],
    "meshes" : [
        {
            "name" : "two-tone-watch.001",
            "primitives" : [
                {
                    "attributes" : {
                        "POSITION" : 0,
                        "NORMAL" : 1,
                        "TEXCOORD_0" : 2
                    },
                    "indices" : 3,
                    "material" : 0
                },
                {
                    "attributes" : {
                        "POSITION" : 4,
                        "NORMAL" : 5,
                        "TEXCOORD_0" : 6
                    },
                    "indices" : 7,
                    "material" : 1
                }
            ]
        }
    ],
    "accessors" : [
        {
            "bufferView" : 0,
            "componentType" : 5126,
            "count" : 7487,
            "max" : [
                0.1611914336681366,
                0.0110054612159729,
                0.4738924503326416
            ],
            "min" : [
                -0.16540855169296265,
                -0.20449453592300415,
                -0.5670075416564941
            ],
            "type" : "VEC3"
        },
        {
            "bufferView" : 1,
            "componentType" : 5126,
            "count" : 7487,
            "type" : "VEC3"
        },
        {
            "bufferView" : 2,
            "componentType" : 5126,
            "count" : 7487,
            "type" : "VEC2"
        },
        {
            "bufferView" : 3,
            "componentType" : 5123,
            "count" : 13026,
            "type" : "SCALAR"
        },
        {
            "bufferView" : 4,
            "componentType" : 5126,
            "count" : 2004,
            "max" : [
                0.03599143773317337,
                -0.011594533920288086,
                0.4469924569129944
            ],
            "min" : [
                -0.04030856117606163,
                -0.05559450387954712,
                -0.5670075416564941
            ],
            "type" : "VEC3"
        },
        {
            "bufferView" : 5,
            "componentType" : 5126,
            "count" : 2004,
            "type" : "VEC3"
        },
        {
            "bufferView" : 6,
            "componentType" : 5126,
            "count" : 2004,
            "type" : "VEC2"
        },
        {
            "bufferView" : 7,
            "componentType" : 5123,
            "count" : 3702,
            "type" : "SCALAR"
        }
    ],
    "bufferViews" : [
        {
            "buffer" : 0,
            "byteLength" : 89844,
            "byteOffset" : 0
        },
        {
            "buffer" : 0,
            "byteLength" : 89844,
            "byteOffset" : 89844
        },
        {
            "buffer" : 0,
            "byteLength" : 59896,
            "byteOffset" : 179688
        },
        {
            "buffer" : 0,
            "byteLength" : 26052,
            "byteOffset" : 239584
        },
        {
            "buffer" : 0,
            "byteLength" : 24048,
            "byteOffset" : 265636
        },
        {
            "buffer" : 0,
            "byteLength" : 24048,
            "byteOffset" : 289684
        },
        {
            "buffer" : 0,
            "byteLength" : 16032,
            "byteOffset" : 313732
        },
        {
            "buffer" : 0,
            "byteLength" : 7404,
            "byteOffset" : 329764
        }
    ],
    "buffers" : [
        {
            "byteLength" : 337168,
            "uri" : "data:application/octet-stream;base64,"
        }
    ]
}
