{
    "asset" : {
        "generator" : "Khronos glTF Blender I/O v0.9.36",
        "version" : "2.0"
    },
    "scene" : 0,
    "scenes" : [
        {
            "name" : "Scene",
            "nodes" : [
                0
            ]
        }
    ],
    "nodes" : [
        {
            "mesh" : 0,
            "name" : "two-tone-watch",
            "rotation" : [
                0.7071068286895752,
                0,
                0,
                0.7071067094802856
            ]
        }
    ],
    "materials" : [
        {
            "doubleSided" : true,
            "name" : "Gray_metal",
            "pbrMetallicRoughness" : {
                "baseColorFactor" : [
                    0.53329998254776,
                    0.53329998254776,
                    0.53329998254776,
                    1
                ],
                "metallicFactor" : 0,
                "roughnessFactor" : 0.8333333134651184
            }
        },
        {
            "doubleSided" : true,
            "name" : "White_face",
            "pbrMetallicRoughness" : {
                "baseColorFactor" : [
                    0.8353000283241272,
                    0.8353000283241272,
                    0.8353000283241272,
                    1
                ],
                "metallicFactor" : 0,
                "roughnessFactor" : 0.8894458413124084
            }
        },
        {
            "doubleSided" : true,
            "name" : "Black",
            "pbrMetallicRoughness" : {
                "baseColorFactor" : [
                    0.09799999743700027,
                    0.09799999743700027,
                    0.09799999743700027,
                    1
                ],
                "metallicFactor" : 0,
                "roughnessFactor" : 0.8945907354354858
            }
        },
        {
            "doubleSided" : true,
            "name" : "Gold_metal",
            "pbrMetallicRoughness" : {
                "baseColorFactor" : [
                    0.5175999999046326,
                    0.3921999931335449,
                    0.09019999951124191,
                    1
                ],
                "metallicFactor" : 0,
                "roughnessFactor" : 0.8333333134651184
            }
        }
    ],
    "meshes" : [
        {
            "name" : "two-tone-watch",
            "primitives" : [
                {
                    "attributes" : {
                        "POSITION" : 0,
                        "NORMAL" : 1,
                        "TEXCOORD_0" : 2
                    },
                    "indices" : 3,
                    "material" : 0
                },
                {
                    "attributes" : {
                        "POSITION" : 4,
                        "NORMAL" : 5,
                        "TEXCOORD_0" : 6
                    },
                    "indices" : 7,
                    "material" : 1
                },
                {
                    "attributes" : {
                        "POSITION" : 8,
                        "NORMAL" : 9,
                        "TEXCOORD_0" : 10
                    },
                    "indices" : 11,
                    "material" : 2
                },
                {
                    "attributes" : {
                        "POSITION" : 12,
                        "NORMAL" : 13,
                        "TEXCOORD_0" : 14
                    },
                    "indices" : 15,
                    "material" : 3
                }
            ]
        }
    ],
    "accessors" : [
        {
            "bufferView" : 0,
            "componentType" : 5126,
            "count" : 29505,
            "max" : [
                0.5228000283241272,
                0.4366999864578247,
                1.253000020980835
            ],
            "min" : [
                -0.4918999969959259,
                -0.6956999897956848,
                -1.305299997329712
            ],
            "type" : "VEC3"
        },
        {
            "bufferView" : 1,
            "componentType" : 5126,
            "count" : 29505,
            "type" : "VEC3"
        },
        {
            "bufferView" : 2,
            "componentType" : 5126,
            "count" : 29505,
            "type" : "VEC2"
        },
        {
            "bufferView" : 3,
            "componentType" : 5123,
            "count" : 106740,
            "type" : "SCALAR"
        },
        {
            "bufferView" : 4,
            "componentType" : 5126,
            "count" : 436,
            "max" : [
                0.4449999928474426,
                0.4320000112056732,
                0.4032000005245209
            ],
            "min" : [
                -0.4124000072479248,
                0.42340001463890076,
                -0.45509999990463257
            ],
            "type" : "VEC3"
        },
        {
            "bufferView" : 5,
            "componentType" : 5126,
            "count" : 436,
            "type" : "VEC3"
        },
        {
            "bufferView" : 6,
            "componentType" : 5126,
            "count" : 436,
            "type" : "VEC2"
        },
        {
            "bufferView" : 7,
            "componentType" : 5123,
            "count" : 840,
            "type" : "SCALAR"
        },
        {
            "bufferView" : 8,
            "componentType" : 5126,
            "count" : 5264,
            "max" : [
                0.3695000112056732,
                0.4352000057697296,
                0.32820001244544983
            ],
            "min" : [
                -0.33869999647140503,
                0.43059998750686646,
                -0.3799999952316284
            ],
            "type" : "VEC3"
        },
        {
            "bufferView" : 9,
            "componentType" : 5126,
            "count" : 5264,
            "type" : "VEC3"
        },
        {
            "bufferView" : 10,
            "componentType" : 5126,
            "count" : 5264,
            "type" : "VEC2"
        },
        {
            "bufferView" : 11,
            "componentType" : 5123,
            "count" : 15552,
            "type" : "SCALAR"
        },
        {
            "bufferView" : 12,
            "componentType" : 5126,
            "count" : 44190,
            "max" : [
                0.5727999806404114,
                0.4706999957561493,
                1.2509000301361084
            ],
            "min" : [
                -0.4724000096321106,
                -0.6730999946594238,
                -1.3032000064849854
            ],
            "type" : "VEC3"
        },
        {
            "bufferView" : 13,
            "componentType" : 5126,
            "count" : 44190,
            "type" : "VEC3"
        },
        {
            "bufferView" : 14,
            "componentType" : 5126,
            "count" : 44190,
            "type" : "VEC2"
        },
        {
            "bufferView" : 15,
            "componentType" : 5123,
            "count" : 175500,
            "type" : "SCALAR"
        }
    ],
    "bufferViews" : [
        {
            "buffer" : 0,
            "byteLength" : 354060,
            "byteOffset" : 0
        },
        {
            "buffer" : 0,
            "byteLength" : 354060,
            "byteOffset" : 354060
        },
        {
            "buffer" : 0,
            "byteLength" : 236040,
            "byteOffset" : 708120
        },
        {
            "buffer" : 0,
            "byteLength" : 213480,
            "byteOffset" : 944160
        },
        {
            "buffer" : 0,
            "byteLength" : 5232,
            "byteOffset" : 1157640
        },
        {
            "buffer" : 0,
            "byteLength" : 5232,
            "byteOffset" : 1162872
        },
        {
            "buffer" : 0,
            "byteLength" : 3488,
            "byteOffset" : 1168104
        },
        {
            "buffer" : 0,
            "byteLength" : 1680,
            "byteOffset" : 1171592
        },
        {
            "buffer" : 0,
            "byteLength" : 63168,
            "byteOffset" : 1173272
        },
        {
            "buffer" : 0,
            "byteLength" : 63168,
            "byteOffset" : 1236440
        },
        {
            "buffer" : 0,
            "byteLength" : 42112,
            "byteOffset" : 1299608
        },
        {
            "buffer" : 0,
            "byteLength" : 31104,
            "byteOffset" : 1341720
        },
        {
            "buffer" : 0,
            "byteLength" : 530280,
            "byteOffset" : 1372824
        },
        {
            "buffer" : 0,
            "byteLength" : 530280,
            "byteOffset" : 1903104
        },
        {
            "buffer" : 0,
            "byteLength" : 353520,
            "byteOffset" : 2433384
        },
        {
            "buffer" : 0,
            "byteLength" : 351000,
            "byteOffset" : 2786904
        }
    ],
    "buffers" : [
        {
            "byteLength" : 3137904,
            "uri" : "data:application/octet-stream;base64,"
        }
    ]
}
