{
    "asset" : {
        "generator" : "Khronos glTF Blender I/O v0.9.36",
        "version" : "2.0"
    },
    "scene" : 0,
    "scenes" : [
        {
            "name" : "Scene",
            "nodes" : [
                0
            ]
        }
    ],
    "nodes" : [
        {
            "mesh" : 0,
            "name" : "two-tone-watch",
            "rotation" : [
                0.9999853372573853,
                0,
                0,
                -0.0054213423281908035
            ],
            "scale" : [
                0.1224866509437561,
                0.12349135428667068,
                0.12349135428667068
            ]
        }
    ],
    "materials" : [
        {
            "doubleSided" : true,
            "name" : "Gray_metal",
            "pbrMetallicRoughness" : {
                "baseColorFactor" : [
                    0.53329998254776,
                    0.53329998254776,
                    0.53329998254776,
                    1
                ],
                "metallicFactor" : 0,
                "roughnessFactor" : 0.8333333134651184
            }
        },
        {
            "doubleSided" : true,
            "name" : "White_face",
            "pbrMetallicRoughness" : {
                "baseColorFactor" : [
                    0.8353000283241272,
                    0.8353000283241272,
                    0.8353000283241272,
                    1
                ],
                "metallicFactor" : 0,
                "roughnessFactor" : 0.8894458413124084
            }
        },
        {
            "doubleSided" : true,
            "name" : "Black",
            "pbrMetallicRoughness" : {
                "baseColorFactor" : [
                    0.09799999743700027,
                    0.09799999743700027,
                    0.09799999743700027,
                    1
                ],
                "metallicFactor" : 0,
                "roughnessFactor" : 0.8945907354354858
            }
        },
        {
            "doubleSided" : true,
            "name" : "Gold_metal",
            "pbrMetallicRoughness" : {
                "baseColorFactor" : [
                    0.5175999999046326,
                    0.3921999931335449,
                    0.09019999951124191,
                    1
                ],
                "metallicFactor" : 0,
                "roughnessFactor" : 0.8333333134651184
            }
        }
    ],
    "meshes" : [
        {
            "name" : "two-tone-watch.003",
            "primitives" : [
                {
                    "attributes" : {
                        "POSITION" : 0,
                        "NORMAL" : 1,
                        "TEXCOORD_0" : 2
                    },
                    "indices" : 3,
                    "material" : 0
                },
                {
                    "attributes" : {
                        "POSITION" : 4,
                        "NORMAL" : 5,
                        "TEXCOORD_0" : 6
                    },
                    "indices" : 7,
                    "material" : 1
                },
                {
                    "attributes" : {
                        "POSITION" : 8,
                        "NORMAL" : 9,
                        "TEXCOORD_0" : 10
                    },
                    "indices" : 11,
                    "material" : 2
                },
                {
                    "attributes" : {
                        "POSITION" : 12,
                        "NORMAL" : 13,
                        "TEXCOORD_0" : 14
                    },
                    "indices" : 15,
                    "material" : 3
                }
            ]
        }
    ],
    "accessors" : [
        {
            "bufferView" : 0,
            "componentType" : 5126,
            "count" : 10348,
            "max" : [
                0.5041540265083313,
                0.05214284732937813,
                0.571857213973999
            ],
            "min" : [
                -0.5105460286140442,
                -0.056257110089063644,
                -0.5847427845001221
            ],
            "type" : "VEC3"
        },
        {
            "bufferView" : 1,
            "componentType" : 5126,
            "count" : 10348,
            "type" : "VEC3"
        },
        {
            "bufferView" : 2,
            "componentType" : 5126,
            "count" : 10348,
            "type" : "VEC2"
        },
        {
            "bufferView" : 3,
            "componentType" : 5123,
            "count" : 24858,
            "type" : "SCALAR"
        },
        {
            "bufferView" : 4,
            "componentType" : 5126,
            "count" : 574,
            "max" : [
                0.42635396122932434,
                -0.042957138270139694,
                0.4213571548461914
            ],
            "min" : [
                -0.4310460388660431,
                -0.051557134836912155,
                -0.43694284558296204
            ],
            "type" : "VEC3"
        },
        {
            "bufferView" : 5,
            "componentType" : 5126,
            "count" : 574,
            "type" : "VEC3"
        },
        {
            "bufferView" : 6,
            "componentType" : 5126,
            "count" : 574,
            "type" : "VEC2"
        },
        {
            "bufferView" : 7,
            "componentType" : 5123,
            "count" : 840,
            "type" : "SCALAR"
        },
        {
            "bufferView" : 8,
            "componentType" : 5126,
            "count" : 5426,
            "max" : [
                0.35085397958755493,
                -0.05015711113810539,
                0.34625715017318726
            ],
            "min" : [
                -0.3573460280895233,
                -0.05475712940096855,
                -0.361942857503891
            ],
            "type" : "VEC3"
        },
        {
            "bufferView" : 9,
            "componentType" : 5126,
            "count" : 5426,
            "type" : "VEC3"
        },
        {
            "bufferView" : 10,
            "componentType" : 5126,
            "count" : 5426,
            "type" : "VEC2"
        },
        {
            "bufferView" : 11,
            "componentType" : 5123,
            "count" : 15552,
            "type" : "SCALAR"
        },
        {
            "bufferView" : 12,
            "componentType" : 5126,
            "count" : 64446,
            "max" : [
                0.5541539788246155,
                0.04214285686612129,
                0.571857213973999
            ],
            "min" : [
                -0.4910460114479065,
                -0.09025712311267853,
                -0.5809428095817566
            ],
            "type" : "VEC3"
        },
        {
            "bufferView" : 13,
            "componentType" : 5126,
            "count" : 64446,
            "type" : "VEC3"
        },
        {
            "bufferView" : 14,
            "componentType" : 5126,
            "count" : 64446,
            "type" : "VEC2"
        },
        {
            "bufferView" : 15,
            "componentType" : 5123,
            "count" : 145608,
            "type" : "SCALAR"
        }
    ],
    "bufferViews" : [
        {
            "buffer" : 0,
            "byteLength" : 124176,
            "byteOffset" : 0
        },
        {
            "buffer" : 0,
            "byteLength" : 124176,
            "byteOffset" : 124176
        },
        {
            "buffer" : 0,
            "byteLength" : 82784,
            "byteOffset" : 248352
        },
        {
            "buffer" : 0,
            "byteLength" : 49716,
            "byteOffset" : 331136
        },
        {
            "buffer" : 0,
            "byteLength" : 6888,
            "byteOffset" : 380852
        },
        {
            "buffer" : 0,
            "byteLength" : 6888,
            "byteOffset" : 387740
        },
        {
            "buffer" : 0,
            "byteLength" : 4592,
            "byteOffset" : 394628
        },
        {
            "buffer" : 0,
            "byteLength" : 1680,
            "byteOffset" : 399220
        },
        {
            "buffer" : 0,
            "byteLength" : 65112,
            "byteOffset" : 400900
        },
        {
            "buffer" : 0,
            "byteLength" : 65112,
            "byteOffset" : 466012
        },
        {
            "buffer" : 0,
            "byteLength" : 43408,
            "byteOffset" : 531124
        },
        {
            "buffer" : 0,
            "byteLength" : 31104,
            "byteOffset" : 574532
        },
        {
            "buffer" : 0,
            "byteLength" : 773352,
            "byteOffset" : 605636
        },
        {
            "buffer" : 0,
            "byteLength" : 773352,
            "byteOffset" : 1378988
        },
        {
            "buffer" : 0,
            "byteLength" : 515568,
            "byteOffset" : 2152340
        },
        {
            "buffer" : 0,
            "byteLength" : 291216,
            "byteOffset" : 2667908
        }
    ],
    "buffers" : [
        {
            "byteLength" : 2959124,
            "uri" : "data:application/octet-stream;base64,"
        }
    ]
}
